<svg id="图层_1" data-name="图层 1" xmlns="http://www.w3.org/2000/svg" viewBox="0 0 1000 1000"><defs><style>.cls-1{fill:#ffbd4a;}.cls-2{fill:#ff5b5c;}.cls-3{fill:#99e265;}</style></defs><path class="cls-1" d="M464.9,515.1a43.85,43.85,0,1,0-.1,0Zm41.4,348.8a255.57,255.57,0,0,0-32.2-17.4,336.16,336.16,0,0,1-139-116c-1.5,4.7-2.9,9.3-4.1,14C290.2,895.8,440.3,1000,440.3,1000c-44.6-47.1-30-110-30-110,13.7,50,99.2,74.4,99.2,74.4a166.64,166.64,0,0,1-58.2-75.6L472.8,900a162,162,0,0,0,86.8,19.2l118.8-7.1-119-26.3A165.53,165.53,0,0,1,506.3,863.9Z"/><path class="cls-1" d="M691.3,512.3a182.86,182.86,0,0,1-94.4,19.4l-43.8-2.9L740.4,373.7,575.5,465.5A791.92,791.92,0,0,0,469,539.4l-1.1,1.1a23.69,23.69,0,0,1-38-10,136.31,136.31,0,0,0-20-36.3C339.9,403.5,211,324.9,211,324.9,310.1,408.5,324.1,450,324.1,450l-90,14s188.7,0,159.4,142.2a96.38,96.38,0,0,0,1,39.3,316.89,316.89,0,0,0,41.6,103.4c-5.2-63.9,37-118,68.4-148.9a107,107,0,0,1,67.4-30l16.1-1.1a181.12,181.12,0,0,0,97.7-37.1l63.4-48.6Z"/><path class="cls-1" d="M397.3,780a317.6,317.6,0,0,0,69,47.7,151.36,151.36,0,0,1-18-30c-.9-2-1.8-3.9-2.6-5.8a265.78,265.78,0,0,0-21.8-40.8A324.34,324.34,0,0,1,381,637.9a2.73,2.73,0,0,1,0,.7v.7A108,108,0,0,0,397.3,780Z"/><path class="cls-2" d="M470.1,32.5c-105.4,136.8-3.8,218.6-3.8,218.6l4-92,3.9,92S575.4,169.3,470.1,32.5Z"/><path class="cls-3" d="M852.6,570C769.3,478.6,699,540,699,540l64.4,14.2L698,545.5S743,627.6,852.6,570Z"/><path class="cls-2" d="M963.7,508.6C847.3,381,749.2,466.7,749.2,466.7l90,20-91.3-12.1s62.8,114,215.8,34Z"/><path class="cls-3" d="M954.9,324.7c-164.4-53-207.1,70-207.1,70l87.9-27.3-85.2,34.7S861.7,470,954.9,324.7ZM761,230.5C631.9,246.4,641.7,344,641.7,344l51.5-46.5-46.9,50.7S743.4,359.4,761,230.5Z"/><path class="cls-2" d="M645.6,44C516.3,60,526.3,157.6,526.3,157.6L577.7,111l-47.2,50.8S628,172.9,645.6,44Zm129.7,78.5c-106.8,13.1-99,93.9-99,93.9l42.5-38.5L680.1,220s80.7,9.1,95.2-97.5Zm96.5,132.7c-105.2-22.6-124,56.3-124,56.3l52.8-22.4-50.7,26.8S823.1,351.1,871.8,255.2Zm-108.5,176c-105.2-22.7-124,56.3-124,56.3l52.8-22.4-50.7,26.8S714.6,527.1,763.3,431.2Zm-126-292.6c-100,82.8-40,160-40,160l19-67.1L603.5,300S691.7,256.7,637.3,138.6Z"/><path class="cls-3" d="M561.7,267.9c-100,82.8-39.5,160-39.5,160L540.5,361,528,429.2S616.3,386,561.7,267.9Z"/><path class="cls-2" d="M646.8,352.3c-81.5,22.1-66.2,83.9-66.2,83.9l28.8-34.6-25.7,37S647.3,436.7,646.8,352.3Z"/><path class="cls-3" d="M572.5,187.4c-81.4,22.6-66.2,83.9-66.2,83.9L535,236.6l-25.7,37S573.1,271.8,572.5,187.4ZM526.3,0C475.2,67.2,525,106.8,525,106.8l1.3-44.9,2.2,44.9S577.7,66.5,526.3,0Z"/><path class="cls-2" d="M418.8,286.3c-55.7-14.1-67.2,27.7-67.2,27.7l28.6-11-27.6,13.4S391,336.5,418.8,286.3ZM394,327.5c-.7,84.9,63.3,86.9,63.3,86.9l-25.7-37.2,28.8,34.9S476.3,350,394,327.5Z"/><path class="cls-3" d="M317.6,332c7,81.8,68.7,78,68.7,78l-28.2-33.5,31,31S398.5,346.1,317.6,332ZM712,78.7c-56.2,12-48.1,54.6-48.1,54.6l20.8-22.5L666.3,135S709.2,136.1,712,78.7ZM832.2,190c-55.9-12.5-65.9,30-65.9,30l28.2-11.9L767.1,222S806.3,240.8,832.2,190Z"/><path class="cls-2" d="M87.2,496.7c76.8-78.9,140-27.2,140-27.2l-58.8,12.8,60-8.1S186.3,544.5,87.2,496.7Z"/><path class="cls-3" d="M36.3,345.3c164.3-53,207.1,70,207.1,70L155.5,388l85.2,34.7S129.5,490.6,36.3,345.3Z"/><path class="cls-2" d="M183.7,224.4C312.8,240,303,337.9,303,337.9l-51.5-46.5,47.3,50.8S201.3,353.3,183.7,224.4Z"/><path class="cls-3" d="M287.4,44C416.3,60,406.3,157.6,406.3,157.6l-51-46.6,47.3,50.8S305,172.9,287.4,44ZM157.7,122.5c106.8,13.1,98.6,93.9,98.6,93.9l-42.6-38.5L252.9,220S172.3,229.1,157.7,122.5Z"/><path class="cls-2" d="M61.2,255.2c105.2-22.6,124,56.3,124,56.3l-52.8-22.4,50.7,26.8S109.9,351.1,61.2,255.2ZM296.3,138.6c100,82.8,39.5,160,39.5,160l-18.3-66.9,12,68.3S241.3,256.7,296.3,138.6Z"/><path class="cls-3" d="M360.5,187.4c81.5,22.6,65.8,83.9,65.8,83.9l-28.8-34.7,25.7,37S360,271.8,360.5,187.4Z"/><path class="cls-2" d="M452.4,258.3c79.4,61.4,34.4,122.4,34.4,122.4L471,330l11.4,52.3S413.3,350.8,452.4,258.3ZM407.3,0c51,67.2,1.2,106.8,1.2,106.8l-1.6-44.9-2.2,44.9S355.3,66.5,407.3,0ZM221,78.7c56.2,12,48.1,54.6,48.1,54.6l-20.8-22.5L267.1,135S223.8,136.1,221,78.7ZM100.8,190C157,178,167,220,167,220l-28.1-11.9L166.3,222S126.8,240.8,100.8,190Z"/></svg>